<svg data-v-329c6982="" viewBox="0 0 554 167" fill="none" xmlns="http://www.w3.org/2000/svg" class="w-48"><g data-v-329c6982="" clip-path="url(#clip0_578:255)"><path data-v-329c6982="" d="M67.8759 6.68016C78.4365 6.71526 88.7828 9.66231 97.7769 15.1972C98.7892 13.9121 100.091 12.8845 101.576 12.1982C103.059 11.5137 104.683 11.1908 106.315 11.2562C108.828 11.1262 111.315 11.8182 113.405 13.2262C115.497 14.638 117.077 16.6882 117.91 19.0712C118.252 21.1462 118.132 23.2712 117.557 25.2922C116.983 27.3124 115.969 29.1805 114.588 30.7622C120.494 38.8391 123.755 48.5459 123.924 58.5502C124.215 64.9567 122.38 71.2797 118.703 76.5342C115.038 81.7751 109.733 85.6475 103.624 87.5412L102.86 87.7752L103.226 91.7832C103.226 91.9832 103.591 95.6912 103.691 96.8602C103.99 99.7662 104.256 102.071 104.588 104.275C106.407 114.139 110.315 123.5 116.05 131.73C116.909 133.125 117.196 134.799 116.849 136.4C116.503 138 115.549 139.404 114.189 140.314C113.2 140.963 112.049 141.322 110.867 141.349C110.47 141.398 110.068 141.398 109.671 141.349C108.873 141.196 108.113 140.887 107.434 140.44C106.756 139.993 106.172 139.417 105.717 138.744C99.008 128.99 94.4758 117.906 92.4279 106.246C92.0629 103.841 91.7639 101.336 91.4649 98.2632C91.4649 97.0272 91.2649 96.1252 91.0329 93.8542L90.7669 90.7142C88.9069 90.9822 86.9789 91.1822 84.8869 91.3492C84.7869 103.2 85.4069 115.046 86.7469 126.82L86.9789 128.691C87.312 131.49 87.6777 134.284 88.0759 137.074C88.7079 142.072 89.9459 146.974 91.7639 151.67C92.1039 152.426 92.2849 153.245 92.2949 154.074C92.3034 154.907 92.1569 155.734 91.8629 156.513C91.5419 157.282 91.0799 157.984 90.5009 158.583C89.9272 159.183 89.2376 159.661 88.4739 159.986C87.7125 160.289 86.9013 160.448 86.0819 160.454C85.2477 160.456 84.4221 160.285 83.6569 159.953C82.9025 159.611 82.2159 159.136 81.6299 158.55C81.0587 157.951 80.6076 157.248 80.3009 156.479C78.0807 150.842 76.5632 144.952 75.7829 138.944C75.4179 136.506 75.2509 135.07 74.6529 130.227L74.4209 128.39C73.0217 116.273 72.3671 104.081 72.4609 91.8842H63.5899C63.6845 104.092 63.0299 116.295 61.6299 128.423L61.3969 130.26C60.7989 135.103 60.6329 136.539 60.2669 138.978C59.4864 144.986 57.9689 150.876 55.7489 156.513C55.121 158.018 53.9284 159.217 52.4269 159.853C51.6784 160.183 50.8693 160.353 50.0514 160.353C49.2334 160.353 48.4244 160.183 47.6759 159.853C46.9214 159.535 46.2372 159.07 45.6625 158.487C45.0878 157.904 44.6339 157.212 44.3269 156.453C43.7035 154.918 43.7129 153.199 44.3529 151.67C46.1709 146.973 47.4093 142.071 48.0409 137.074C48.4391 134.284 48.8048 131.49 49.1379 128.691L49.3699 126.82C50.7097 115.023 51.3309 103.155 51.2299 91.2822C49.2699 91.2822 47.3769 90.9152 45.5829 90.6822C45.5829 92.9522 45.3169 95.6242 45.2509 96.9272C45.1348 98.899 45.0014 100.87 44.8509 102.839C44.8509 104.542 44.6189 105.912 44.5199 106.88C43.8079 112.43 42.6974 117.922 41.1969 123.313V123.58C40.172 126.559 38.4176 129.234 36.0939 131.361C33.7754 133.484 30.9604 134.989 27.9079 135.738C26.6558 136.031 25.3738 136.177 24.0879 136.172C19.7998 136.162 15.6644 134.579 12.4649 131.724C9.25608 128.861 7.19965 124.927 6.67987 120.658C6.1571 116.386 7.20518 112.069 9.62887 108.512C12.0446 104.965 15.6748 102.424 19.8349 101.369C20.6475 101.221 21.4802 101.221 22.2929 101.369C23.0949 101.508 23.8629 101.803 24.5529 102.238C25.2513 102.667 25.8576 103.23 26.3365 103.895C26.8155 104.56 27.1575 105.314 27.3429 106.112C27.5085 106.916 27.5085 107.746 27.3429 108.55C27.2221 109.366 26.9399 110.15 26.5129 110.855C26.0845 111.552 25.519 112.154 24.8509 112.625C24.1856 113.116 23.4287 113.468 22.6249 113.661C21.9749 113.806 21.3629 114.091 20.8309 114.496C20.2718 114.863 19.8055 115.354 19.4689 115.932C18.9893 116.712 18.7258 117.606 18.7052 118.521C18.6847 119.436 18.9079 120.34 19.3519 121.141C19.7943 121.941 20.4423 122.607 21.2289 123.072C22.0149 123.536 22.9099 123.781 23.8209 123.781C24.2079 123.828 24.5979 123.828 24.9839 123.781C26.0165 123.471 26.9538 122.905 27.7079 122.134C28.4635 121.362 29.0122 120.412 29.3029 119.372C29.7019 117.769 30.0669 116.032 30.3999 114.529C31.0309 111.389 31.5299 108.25 31.8279 105.678C31.8279 104.91 32.0279 103.741 32.1279 102.338C32.2269 100.935 32.3929 98.4972 32.4929 96.5932C32.5929 94.6892 32.7919 91.6502 32.8909 89.1122V88.3102C31.2125 87.7823 29.57 87.1464 27.9739 86.4062C22.8264 84.2374 18.4732 80.5338 15.5079 75.8002C12.5341 71.0556 11.0873 65.5129 11.3629 59.9202C11.5765 49.6861 14.9279 39.7645 20.9639 31.4972C19.4621 29.9349 18.3422 28.0463 17.6919 25.9792C17.0405 23.9094 16.8755 21.7171 17.2099 19.5732C18.0429 17.1902 19.6234 15.1401 21.7159 13.7282C23.8029 12.3206 26.2908 11.6293 28.8049 11.7582C30.4527 11.695 32.0919 12.0251 33.5869 12.7212C35.0841 13.4191 36.3943 14.4624 37.4099 15.7652C46.3577 10.1037 56.7215 7.08227 67.3099 7.04816L67.8749 6.68016H67.8759ZM67.3099 0.368164C57.1673 0.379318 47.1794 2.85502 38.2059 7.58216C35.34 5.82096 32.0345 4.9061 28.6709 4.94316C24.6845 4.78576 20.7583 5.95439 17.5069 8.26616C14.247 10.5849 11.8421 13.9132 10.6639 17.7362C9.74561 22.4594 10.4849 27.3547 12.7569 31.5962C7.56708 40.0957 4.74523 49.8287 4.58387 59.7862C4.28227 66.6483 6.07417 73.44 9.72187 79.2602C13.359 85.067 18.6842 89.6233 24.9839 92.3182L25.8479 92.7182V95.6242C25.0146 95.29 24.145 95.0551 23.2569 94.9242C22.5604 94.858 21.8593 94.858 21.1629 94.9242C20.1788 94.9194 19.1976 95.0311 18.2399 95.2572C13.6049 96.3839 9.40718 98.8575 6.17587 102.366C2.93565 105.884 0.802353 110.277 0.0418663 114.999C-0.721087 119.724 -0.0791806 124.57 1.88787 128.933C3.84984 133.289 7.05322 136.969 11.0969 139.512C14.9553 141.949 19.4236 143.245 23.9869 143.253C25.7541 143.254 27.5156 143.052 29.2369 142.652C33.8008 141.643 37.9699 139.321 41.2309 135.972V136.64C40.6798 141.105 39.5632 145.483 37.9079 149.666C36.6066 152.84 36.6066 156.398 37.9079 159.572C39.2038 162.74 41.7001 165.266 44.8519 166.599C46.4173 167.264 48.1011 167.605 49.8019 167.602C51.4919 167.604 53.1639 167.263 54.7189 166.599C56.2849 165.957 57.7075 165.01 58.9039 163.813C60.1024 162.613 61.0513 161.188 61.6959 159.619C64.122 153.48 65.7737 147.062 66.6129 140.514C66.9789 138.176 67.1779 136.74 67.6769 132.732C68.1419 136.606 68.3409 138.176 68.6729 140.514C69.5359 147.064 71.2101 153.482 73.6569 159.619C74.2684 161.175 75.1828 162.594 76.3469 163.794C77.5376 165.021 78.961 165.997 80.5339 166.666C82.1107 167.333 83.8054 167.676 85.5174 167.676C87.2294 167.676 88.924 167.333 90.5009 166.666C92.072 166.009 93.4954 165.044 94.6869 163.827C95.8936 162.6 96.8438 161.144 97.4819 159.545C98.1209 157.945 98.4359 156.233 98.4079 154.509C98.3803 152.793 98.0076 151.101 97.3119 149.532C95.6924 145.372 94.5768 141.032 93.9889 136.606C93.757 135.186 93.5576 133.761 93.3909 132.331C95.2654 135.976 97.3281 139.521 99.5709 142.952C100.51 144.367 101.719 145.582 103.129 146.528C104.535 147.473 106.115 148.131 107.777 148.463C108.6 148.607 109.433 148.685 110.269 148.697C112.786 148.704 115.249 147.96 117.346 146.559C120.167 144.695 122.145 141.8 122.856 138.494C123.571 135.184 122.964 131.726 121.166 128.857C115.93 121.396 112.35 112.9 110.668 103.941C110.369 101.937 110.103 99.7332 109.804 96.8612C109.804 96.0592 109.538 93.9882 109.405 92.7852C115.773 89.9109 121.137 85.2007 124.811 79.2582C128.494 73.3015 130.324 66.3849 130.07 59.3862C129.943 49.5979 127.189 40.0234 122.097 31.6632C124.224 27.5533 124.892 22.8423 123.99 18.3032C123.073 15.6571 121.586 13.2451 119.633 11.2382C117.684 9.23588 115.316 7.689 112.7 6.70816C110.086 5.72902 107.288 5.34153 104.506 5.57358C101.725 5.80563 99.0293 6.65145 96.6139 8.05016C87.6213 3.38472 77.6406 0.945099 67.5099 0.936164L67.3109 0.368164H67.3099Z" fill="white"></path> <path data-v-329c6982="" fill-rule="evenodd" clip-rule="evenodd" d="M102.728 26.2533C93.3619 17.123 80.7907 12.0269 67.7109 12.0582C54.5465 12.1109 41.9408 17.3839 32.6599 26.7202C24.068 34.9761 19.0574 46.2729 18.7049 58.1832C18.4682 63.0618 19.7311 67.8959 22.3239 72.0353C24.9093 76.1646 28.7035 79.3978 33.1909 81.2952C41.1979 85.0703 51.9289 86.4403 67.8429 86.4403C82.2289 86.4403 91.4649 85.5043 98.9729 82.7323C104.31 81.0816 108.947 77.7012 112.151 73.1242C115.364 68.5347 116.969 63.0111 116.715 57.4142C116.556 51.5494 115.237 45.774 112.835 40.4213C110.437 35.0759 107.001 30.26 102.727 26.2533H102.728Z" fill="white"></path> <path data-v-329c6982="" fill-rule="evenodd" clip-rule="evenodd" d="M67.7099 6.68015C60.2595 6.67732 52.8824 8.15104 46.005 11.0161C39.1184 13.8854 32.8666 18.0872 27.6089 23.3801C17.7869 32.8081 12.0479 45.7401 11.6289 59.3851C11.3531 64.9778 12.7995 70.5205 15.7729 75.2652C18.7383 79.9993 23.0919 83.7034 28.2399 85.8722C37.4099 90.1812 49.6699 91.7512 67.9089 91.7512C84.521 91.7512 94.9529 90.6812 103.525 87.5092C109.633 85.6146 114.938 81.7415 118.603 76.5002C122.28 71.246 124.115 64.9233 123.824 58.5171C123.633 51.8094 122.12 45.2053 119.37 39.0841C116.625 32.972 112.696 27.4643 107.81 22.8791C97.0909 12.437 82.7074 6.60998 67.7429 6.64715L67.7099 6.68015ZM67.7099 19.2051C79.4405 19.1592 90.7181 23.7305 99.1059 31.9311C102.803 35.355 105.785 39.4769 107.881 44.0591C109.981 48.6485 111.153 53.6074 111.332 58.6511C111.593 62.4902 110.525 66.3021 108.308 69.4471C106.098 72.5839 102.869 74.8588 99.1719 75.8852C92.5269 78.3902 82.9259 79.2252 67.8759 79.2252C51.264 79.2252 40.5329 77.8892 33.4559 74.5492C30.47 73.3853 27.9436 71.2818 26.2579 68.5561C24.568 65.8243 23.8068 62.6191 24.0879 59.4191C24.5083 49.1257 28.9165 39.3995 36.3799 32.2981C40.4849 28.1561 45.3677 24.8657 50.748 22.6161C56.1212 20.3703 61.8862 19.2113 67.7099 19.2061V19.2051Z" fill="#52525B"></path> <path data-v-329c6982="" fill-rule="evenodd" clip-rule="evenodd" d="M27.0117 31.73C20.3667 35.07 16.3467 23.982 17.6087 19.072C19.7347 10.889 32.7917 8.35002 37.8087 15.264C39.3707 17.435 38.3067 19.74 39.0717 21.944L27.0117 31.73ZM108.675 31.73C115.32 35.07 119.34 23.982 118.077 19.072C115.951 10.889 102.894 8.35002 97.8767 15.264C96.3157 17.435 97.3787 19.74 96.6147 21.944L108.675 31.73ZM78.4747 79.225C77.6535 79.2255 76.8405 79.3883 76.0825 79.7041C75.3244 80.0198 74.6363 80.4824 74.0577 81.065C72.885 82.2451 72.2271 83.8414 72.2277 85.505C71.9733 99.7837 72.6393 114.064 74.2217 128.257L74.4547 130.093C75.0527 134.936 75.2187 136.373 75.5847 138.811C76.365 144.819 77.8825 150.709 80.1027 156.346C80.4096 157.115 80.8607 157.818 81.4317 158.417C82.0174 159.002 82.7037 159.477 83.4577 159.819C84.2227 160.152 85.0484 160.322 85.8827 160.32C86.7135 160.318 87.5365 160.16 88.3087 159.853C89.0717 159.527 89.7608 159.049 90.3347 158.45C90.9141 157.851 91.3764 157.148 91.6977 156.379C91.9913 155.6 92.1375 154.773 92.1287 153.941C92.1187 153.111 91.938 152.293 91.5977 151.536C89.7795 146.839 88.541 141.937 87.9097 136.94C87.5116 134.15 87.1462 131.356 86.8137 128.557L86.5807 126.687C85.062 113.015 84.4293 99.2582 84.6867 85.504C84.6865 84.6719 84.5217 83.848 84.2018 83.0798C83.8819 82.3116 83.4132 81.6143 82.8227 81.028C82.2329 80.4449 81.533 79.9852 80.7636 79.6756C79.9942 79.366 79.1709 79.2129 78.3417 79.225H78.4747ZM57.5107 79.225C56.6924 79.2298 55.8831 79.3958 55.129 79.7133C54.3749 80.0309 53.6908 80.494 53.1157 81.076C51.9503 82.2551 51.2971 83.8462 51.2977 85.504C51.5551 99.2582 50.9224 113.015 49.4037 126.687L49.1707 128.557C48.838 131.356 48.4727 134.15 48.0747 136.94C47.4433 141.937 46.2048 146.839 44.3867 151.536C43.747 153.065 43.7377 154.784 44.3607 156.32C44.6676 157.079 45.1213 157.77 45.6958 158.353C46.2703 158.937 46.9544 159.401 47.7087 159.719C49.2289 160.353 50.9387 160.358 52.4627 159.733C53.9891 159.105 55.2059 157.899 55.8487 156.379C58.0692 150.742 59.5869 144.852 60.3677 138.844C60.7327 136.406 60.8997 134.97 61.4977 130.127L61.7297 128.29C63.3117 114.097 63.9774 99.8167 63.7227 85.538C63.7235 83.8745 63.0659 82.2783 61.8937 81.098C61.315 80.5154 60.6269 80.0528 59.8689 79.7371C59.1108 79.4213 58.2978 79.2585 57.4767 79.258L57.5107 79.225ZM95.8837 79.225C95.0695 79.2958 94.2775 79.5271 93.5532 79.9055C92.8289 80.284 92.1867 80.8021 91.6637 81.43C90.595 82.7041 90.0702 84.3474 90.2027 86.005L90.8667 93.688C91.0997 95.958 91.1657 97.028 91.2987 98.096C91.5977 101.169 91.8967 103.674 92.2617 106.079C94.3098 117.739 98.8423 128.823 105.552 138.577C106.491 139.878 107.898 140.766 109.476 141.055C111.055 141.344 112.685 141.012 114.025 140.128C115.367 139.242 116.318 137.874 116.681 136.306C117.046 134.737 116.796 133.088 115.984 131.697C110.249 123.467 106.341 114.106 104.522 104.242C104.19 102.037 103.924 99.732 103.625 96.827C103.625 95.658 103.16 91.951 103.16 91.75L102.562 85.07C102.491 84.2533 102.261 83.4584 101.885 82.73C101.509 82.0026 100.994 81.3563 100.369 80.828C99.7429 80.271 99.0118 79.8451 98.2186 79.5754C97.4255 79.3057 96.5863 79.1978 95.7507 79.258L95.8837 79.225ZM39.9017 79.225C39.0829 79.187 38.2647 79.3121 37.4948 79.5932C36.7248 79.8742 36.0184 80.3055 35.4167 80.862C34.8052 81.4131 34.3108 82.0815 33.9626 82.8273C33.6144 83.5732 33.4195 84.3814 33.3897 85.204V88.544C33.3897 91.082 33.1247 93.654 32.9917 96.025C32.8587 98.397 32.7587 99.833 32.6257 101.77C32.4927 103.707 32.4257 104.476 32.3267 105.11C32.0607 107.682 31.5297 110.822 30.8987 113.961C30.5657 115.598 30.2007 117.301 29.8017 118.804C29.511 119.845 28.9623 120.795 28.2067 121.567C27.4525 122.337 26.5153 122.904 25.4827 123.213C24.4981 123.444 23.467 123.377 22.5207 123.02C21.5729 122.662 20.7526 122.031 20.1637 121.206C19.5727 120.379 19.2389 119.397 19.204 118.381C19.1691 117.366 19.4348 116.362 19.9677 115.497C20.3046 114.92 20.7708 114.429 21.3297 114.062C21.8603 113.657 22.4724 113.372 23.1237 113.227C23.9275 113.034 24.6844 112.682 25.3497 112.191C26.0178 111.72 26.5832 111.117 27.0117 110.421C27.4387 109.716 27.7217 108.932 27.8417 108.116C28.0073 107.312 28.0073 106.482 27.8417 105.678C27.6562 104.879 27.3139 104.124 26.8347 103.458C26.3561 102.793 25.7496 102.231 25.0507 101.804C24.3618 101.369 23.5943 101.074 22.7917 100.935C21.9805 100.768 21.1438 100.768 20.3327 100.935C15.9382 102.153 12.1885 105.03 9.87466 108.959C7.55217 112.898 6.83966 117.582 7.88566 122.033C8.92701 126.479 11.6493 130.349 15.4817 132.832C19.3043 135.306 23.9408 136.193 28.4067 135.304C31.4592 134.555 34.2742 133.049 36.5927 130.927C38.9165 128.8 40.6708 126.125 41.6957 123.146V122.879C43.1957 117.489 44.3057 111.997 45.0187 106.446C45.0187 105.444 45.2507 104.108 45.3507 102.405C45.4507 100.702 45.6167 98.765 45.7497 96.493C45.8827 94.222 46.2147 87.208 46.2477 86.473V85.538C46.2772 84.7097 46.1531 83.8831 45.8817 83.1C45.5862 82.3408 45.159 81.6397 44.6197 81.029C44.0663 80.4183 43.4009 79.9193 42.6597 79.559C41.733 79.2345 40.7432 79.1317 39.7697 79.259L39.9017 79.225ZM38.3067 60.655C39.0047 54.342 50.9317 46.56 54.5867 46.493C56.1343 46.3615 57.6749 46.8166 58.9027 47.768C60.1341 48.7223 60.9647 50.1022 61.2317 51.637C62.2617 54.977 57.4767 60.221 55.1847 63.561C52.8917 66.901 53.5897 69.973 47.6757 70.775C40.8657 71.71 37.4437 67.001 38.1737 60.688L38.3067 60.655Z" fill="#52525B"></path> <path data-v-329c6982="" fill-rule="evenodd" clip-rule="evenodd" d="M50.0019 55.8451C49.9161 55.4698 49.9072 55.0811 49.9756 54.7024C50.044 54.3236 50.1883 53.9626 50.3999 53.6411C50.8246 52.9788 51.4933 52.5106 52.2609 52.3381C53.012 52.1729 53.7979 52.3047 54.4539 52.7061C54.7814 52.9102 55.0648 53.1778 55.2874 53.4931C55.51 53.8084 55.6672 54.1651 55.7499 54.5421C55.8326 54.9277 55.8326 55.3264 55.7499 55.7121C55.6851 56.0955 55.5377 56.4603 55.3179 56.7811C55.1139 57.1034 54.8415 57.3769 54.5199 57.5821C54.2109 57.8041 53.8599 57.9641 53.4899 58.0501C53.1069 58.1331 52.7099 58.1331 52.3279 58.0501C51.9528 57.9787 51.5928 57.843 51.2639 57.6491C50.9332 57.4439 50.6502 57.1705 50.4339 56.8471C50.2126 56.5359 50.0546 56.1842 49.9689 55.8121L50.0019 55.8451Z" fill="white"></path> <path data-v-329c6982="" fill-rule="evenodd" clip-rule="evenodd" d="M97.5457 60.6881C96.8477 54.3751 84.9207 46.5931 81.2657 46.5261C79.7184 46.3948 78.1782 46.8499 76.9507 47.8011C75.7189 48.7552 74.888 50.1351 74.6207 51.6701C73.5917 55.0101 78.4087 60.2541 80.6687 63.5941C82.9277 66.9341 82.2627 70.0061 88.1767 70.8081C94.8547 71.7101 98.2767 67.0001 97.5457 60.6881Z" fill="#52525B"></path> <path data-v-329c6982="" fill-rule="evenodd" clip-rule="evenodd" d="M85.7168 55.8453C85.8279 55.1052 85.657 54.3503 85.2378 53.7303C84.8203 53.112 84.1844 52.6744 83.4578 52.5053C82.7278 52.3753 81.9768 52.5303 81.3578 52.9413C80.7391 53.3526 80.3015 53.9853 80.1348 54.7093C80.0521 55.0949 80.0521 55.4937 80.1348 55.8793C80.2158 56.2573 80.3628 56.6193 80.5668 56.9473C80.7708 57.2703 81.0428 57.5443 81.3648 57.7493C81.6738 57.9713 82.0238 58.1303 82.3948 58.2173C83.1566 58.3844 83.9534 58.2526 84.6208 57.8493C84.9483 57.6449 85.2315 57.3771 85.4539 57.0616C85.6763 56.7461 85.8334 56.3894 85.9158 56.0123L85.7158 55.8453H85.7168Z" fill="white"></path> <path data-v-329c6982="" fill-rule="evenodd" clip-rule="evenodd" d="M63.0591 62.9254C63.2666 61.8211 63.8513 60.8233 64.7131 60.1024C65.5727 59.3836 66.6566 58.9882 67.7771 58.9844C68.9157 58.9874 70.0192 59.379 70.9051 60.0944C71.7936 60.8122 72.4123 61.8103 72.6601 62.9254C72.6601 64.5284 70.4681 64.8634 67.8101 64.8634C65.1521 64.8634 63.0591 64.5284 63.0591 62.9254Z" fill="#52525B"></path> <path data-v-329c6982="" d="M182.144 60.6482H214.688C222.496 60.6482 228.544 62.5362 232.832 66.3122C237.12 70.0242 239.264 75.0802 239.264 81.4802C239.264 87.8162 237.088 92.8722 232.736 96.6482C228.384 100.424 222.368 102.312 214.688 102.312H200.192V129H182.144V60.6482ZM212.288 88.8722C219.072 88.8722 222.464 86.4722 222.464 81.6722C222.464 79.2402 221.632 77.4162 219.968 76.2002C218.368 74.9202 215.808 74.2802 212.288 74.2802H200.192V88.8722H212.288ZM296.2 80.2322V129H279.112V122.376C277.704 124.68 275.656 126.504 272.968 127.848C270.28 129.128 267.336 129.768 264.136 129.768C259.976 129.768 256.264 128.744 253 126.696C249.736 124.648 247.176 121.736 245.32 117.96C243.528 114.12 242.632 109.704 242.632 104.712C242.632 99.6562 243.56 95.1762 245.416 91.2722C247.272 87.3682 249.832 84.3282 253.096 82.1522C256.36 79.9762 260.04 78.8882 264.136 78.8882C267.336 78.8882 270.248 79.5922 272.872 81.0002C275.56 82.3442 277.64 84.1682 279.112 86.4722V80.2322H296.2ZM269.512 116.808C272.584 116.808 274.952 115.752 276.616 113.64C278.28 111.528 279.112 108.488 279.112 104.52C279.112 100.488 278.28 97.4162 276.616 95.3042C274.952 93.1282 272.584 92.0402 269.512 92.0402C266.504 92.0402 264.136 93.1602 262.408 95.4002C260.68 97.5762 259.816 100.68 259.816 104.712C259.816 108.616 260.648 111.624 262.312 113.736C263.976 115.784 266.376 116.808 269.512 116.808ZM339.168 78.8882C344.928 78.8882 349.216 80.6482 352.032 84.1682C354.912 87.6242 356.352 92.8722 356.352 99.9122V129H338.976V100.68C338.976 97.6722 338.464 95.5282 337.44 94.2482C336.416 92.9042 334.816 92.2322 332.64 92.2322C330.016 92.2322 327.904 93.1282 326.304 94.9202C324.704 96.6482 323.904 98.9522 323.904 101.832V129H306.528V94.2482C306.528 89.0002 306.272 84.3282 305.76 80.2322H322.08L322.944 87.4322C324.8 84.6802 327.104 82.5682 329.856 81.0962C332.608 79.6242 335.712 78.8882 339.168 78.8882ZM417.794 58.3442V129H400.706V122.376C399.298 124.68 397.25 126.504 394.562 127.848C391.874 129.128 388.93 129.768 385.73 129.768C381.57 129.768 377.858 128.712 374.594 126.6C371.33 124.424 368.77 121.416 366.914 117.576C365.122 113.672 364.226 109.192 364.226 104.136C364.226 99.1442 365.122 94.7282 366.914 90.8882C368.77 87.0482 371.33 84.1042 374.594 82.0562C377.858 79.9442 381.57 78.8882 385.73 78.8882C388.802 78.8882 391.618 79.5282 394.178 80.8082C396.802 82.0882 398.882 83.8162 400.418 85.9922V58.3442H417.794ZM391.106 116.808C394.178 116.808 396.546 115.752 398.21 113.64C399.874 111.464 400.706 108.36 400.706 104.328C400.706 100.424 399.842 97.4162 398.114 95.3042C396.45 93.1282 394.114 92.0402 391.106 92.0402C387.97 92.0402 385.57 93.0962 383.906 95.2082C382.242 97.2562 381.41 100.232 381.41 104.136C381.41 108.168 382.242 111.304 383.906 113.544C385.634 115.72 388.034 116.808 391.106 116.808ZM477.177 80.2322V129H460.186V122.472C457.05 127.336 452.41 129.768 446.266 129.768C440.058 129.768 435.418 128.04 432.346 124.584C429.338 121.128 427.834 115.848 427.834 108.744V80.2322H445.21V109.224C445.21 114.024 447.29 116.424 451.45 116.424C453.882 116.424 455.834 115.56 457.306 113.832C458.842 112.104 459.61 109.8 459.61 106.92V80.2322H477.177ZM507.239 129.768C497.511 129.768 489.831 127.816 484.199 123.912L488.615 112.104C491.239 113.896 494.215 115.304 497.543 116.328C500.871 117.288 504.135 117.768 507.335 117.768C509.319 117.768 510.855 117.48 511.943 116.904C513.031 116.328 513.575 115.528 513.575 114.504C513.575 113.608 513.159 112.904 512.327 112.392C511.559 111.816 510.055 111.304 507.815 110.856L499.943 109.032C494.951 108.008 491.335 106.408 489.095 104.232C486.919 101.992 485.831 98.9202 485.831 95.0162C485.831 91.8802 486.759 89.0962 488.615 86.6642C490.471 84.2322 493.031 82.3442 496.295 81.0002C499.623 79.5922 503.431 78.8882 507.719 78.8882C511.239 78.8882 514.695 79.4002 518.087 80.4242C521.436 81.4285 524.633 82.8817 527.591 84.7442L522.983 96.2642C520.423 94.6002 517.799 93.3202 515.111 92.4242C512.423 91.5282 509.895 91.0802 507.527 91.0802C505.607 91.0802 504.103 91.4002 503.015 92.0402C501.927 92.6162 501.383 93.4802 501.383 94.6322C501.383 95.3362 501.703 95.9122 502.343 96.3602C502.983 96.7442 504.199 97.1602 505.991 97.6082L514.151 99.4322C519.335 100.648 523.047 102.44 525.287 104.808C527.591 107.112 528.743 110.28 528.743 114.312C528.743 119.112 526.823 122.888 522.983 125.64C519.207 128.392 513.959 129.768 507.239 129.768Z" fill="white"></path></g> <defs data-v-329c6982=""><clipPath data-v-329c6982="" id="clip0_578:255"><rect data-v-329c6982="" width="554" height="167" fill="white"></rect></clipPath></defs></svg>
