<svg xmlns="http://www.w3.org/2000/svg" version="1.1" xmlns:xlink="http://www.w3.org/1999/xlink" xmlns:svgjs="http://svgjs.com/svgjs" width="1440" height="560" preserveAspectRatio="none" viewBox="0 0 1440 560"><g mask="url(&quot;#SvgjsMask1015&quot;)" fill="none"><rect width="96" height="96" clip-path="url(&quot;#SvgjsClipPath1016&quot;)" x="-31.74" y="29.58" fill="url(#SvgjsPattern1017)" transform="rotate(172.15, 16.26, 77.58)"></rect><path d="M1498.48 658.9499999999999 L1333.8999999999999 616.42L1315.111867686582 738.763132313418z" stroke="#037b0b" stroke-width="2.16" stroke-dasharray="2, 2"></path><rect width="257.72" height="257.72" clip-path="url(&quot;#SvgjsClipPath1018&quot;)" x="372.37" y="88.62" fill="url(#SvgjsPattern1019)" transform="rotate(59.47, 501.23, 217.48)"></rect><path d="M978.76 212.49a5.6 5.6 0 1 0 3.57-10.62 5.6 5.6 0 1 0-3.57 10.62zM983.85 197.32a5.6 5.6 0 1 0 3.57-10.62 5.6 5.6 0 1 0-3.57 10.62zM988.94 182.15a5.6 5.6 0 1 0 3.57-10.61 5.6 5.6 0 1 0-3.57 10.61zM994.03 166.98a5.6 5.6 0 1 0 3.57-10.61 5.6 5.6 0 1 0-3.57 10.61zM983.75 247.92a5.6 5.6 0 1 0 3.57-10.62 5.6 5.6 0 1 0-3.57 10.62zM988.84 232.75a5.6 5.6 0 1 0 3.57-10.62 5.6 5.6 0 1 0-3.57 10.62zM993.93 217.58a5.6 5.6 0 1 0 3.57-10.62 5.6 5.6 0 1 0-3.57 10.62zM999.02 202.41a5.6 5.6 0 1 0 3.57-10.62 5.6 5.6 0 1 0-3.57 10.62z" fill="#e73635"></path><path d="M1105.86 296.81a5.6 5.6 0 1 0 8.65 7.12 5.6 5.6 0 1 0-8.65-7.12zM1118.22 306.98a5.6 5.6 0 1 0 8.65 7.11 5.6 5.6 0 1 0-8.65-7.11zM1130.58 317.14a5.6 5.6 0 1 0 8.65 7.11 5.6 5.6 0 1 0-8.65-7.11zM1142.94 327.3a5.6 5.6 0 1 0 8.65 7.11 5.6 5.6 0 1 0-8.65-7.11z" stroke="#d3b714" stroke-width="2.27" stroke-dasharray="2, 2"></path><rect width="100.4" height="100.4" clip-path="url(&quot;#SvgjsClipPath1020&quot;)" x="192.36" y="30.09" fill="url(#SvgjsPattern1021)" transform="rotate(359, 242.56, 80.29)"></rect><rect width="192" height="192" clip-path="url(&quot;#SvgjsClipPath1022&quot;)" x="101.75" y="132.88" fill="url(#SvgjsPattern1023)" transform="rotate(119.31, 197.75, 228.88)"></rect><rect width="79.2" height="79.2" clip-path="url(&quot;#SvgjsClipPath1024&quot;)" x="1207.98" y="-5.37" fill="url(#SvgjsPattern1025)" transform="rotate(86.46, 1247.58, 34.23)"></rect><path d="M1224.38 50.99a5.6 5.6 0 1 0-0.1 11.2 5.6 5.6 0 1 0 0.1-11.2zM1224.24 66.99a5.6 5.6 0 1 0-0.1 11.2 5.6 5.6 0 1 0 0.1-11.2zM1224.1 82.99a5.6 5.6 0 1 0-0.1 11.2 5.6 5.6 0 1 0 0.1-11.2zM1223.96 98.99a5.6 5.6 0 1 0-0.1 11.2 5.6 5.6 0 1 0 0.1-11.2zM1208.66 18.85a5.6 5.6 0 1 0-0.1 11.2 5.6 5.6 0 1 0 0.1-11.2zM1208.52 34.85a5.6 5.6 0 1 0-0.1 11.2 5.6 5.6 0 1 0 0.1-11.2zM1208.38 50.85a5.6 5.6 0 1 0-0.1 11.2 5.6 5.6 0 1 0 0.1-11.2zM1208.24 66.85a5.6 5.6 0 1 0-0.1 11.2 5.6 5.6 0 1 0 0.1-11.2z" stroke="#d3b714" stroke-width="2.98" stroke-dasharray="3, 3"></path><path d="M45.39 352.63L54.76 361.36 48.3 372.42 57.66 381.15 51.2 392.2 60.57 400.94 54.11 411.99M37.48 353.79L46.84 362.52 40.38 373.58 49.75 382.31 43.29 393.37 52.65 402.1 46.19 413.15" stroke="#d3b714" stroke-width="2.9" stroke-dasharray="3, 3"></path><rect width="277.64" height="277.64" clip-path="url(&quot;#SvgjsClipPath1026&quot;)" x="87.45" y="7.81" fill="url(#SvgjsPattern1027)" transform="rotate(23.73, 226.27, 146.63)"></rect><rect width="136.4" height="136.4" clip-path="url(&quot;#SvgjsClipPath1028&quot;)" x="885.35" y="379.98" fill="url(#SvgjsPattern1029)" transform="rotate(119.62, 953.55, 448.18)"></rect></g><defs><mask id="SvgjsMask1015"><rect width="1440" height="560" fill="#ffffff"></rect></mask><pattern x="0" y="0" width="6" height="6" patternUnits="userSpaceOnUse" id="SvgjsPattern1017"><path d="M0 6L3 0L6 6" stroke="#d3b714" fill="none"></path></pattern><clipPath id="SvgjsClipPath1016"><circle r="24" cx="16.26" cy="77.58"></circle></clipPath><pattern x="0" y="0" width="7.58" height="7.58" patternUnits="userSpaceOnUse" id="SvgjsPattern1019"><path d="M3.79 1L3.79 6.58M1 3.79L6.58 3.79" stroke="#e73635" fill="none" stroke-width="1"></path></pattern><clipPath id="SvgjsClipPath1018"><circle r="64.43" cx="501.23" cy="217.48"></circle></clipPath><pattern x="0" y="0" width="10.04" height="10.04" patternUnits="userSpaceOnUse" id="SvgjsPattern1021"><path d="M5.02 1L5.02 9.04M1 5.02L9.04 5.02" stroke="#037b0b" fill="none" stroke-width="2.68"></path></pattern><clipPath id="SvgjsClipPath1020"><circle r="25.1" cx="242.56" cy="80.29"></circle></clipPath><pattern x="0" y="0" width="6" height="6" patternUnits="userSpaceOnUse" id="SvgjsPattern1023"><path d="M3 1L3 5M1 3L5 3" stroke="#037b0b" fill="none" stroke-width="1"></path></pattern><clipPath id="SvgjsClipPath1022"><circle r="48" cx="197.75" cy="228.88"></circle></clipPath><pattern x="0" y="0" width="7.92" height="7.92" patternUnits="userSpaceOnUse" id="SvgjsPattern1025"><path d="M3.96 1L3.96 6.92M1 3.96L6.92 3.96" stroke="#037b0b" fill="none" stroke-width="1"></path></pattern><clipPath id="SvgjsClipPath1024"><circle r="19.8" cx="1247.58" cy="34.23"></circle></clipPath><pattern x="0" y="0" width="12.62" height="12.62" patternUnits="userSpaceOnUse" id="SvgjsPattern1027"><path d="M6.31 1L6.31 11.62M1 6.31L11.62 6.31" stroke="#d3b714" fill="none" stroke-width="1"></path></pattern><clipPath id="SvgjsClipPath1026"><circle r="69.41" cx="226.27" cy="146.63"></circle></clipPath><pattern x="0" y="0" width="136.4" height="6.82" patternUnits="userSpaceOnUse" id="SvgjsPattern1029"><rect width="136.4" height="3.41" x="0" y="0" fill="#e73635"></rect><rect width="136.4" height="3.41" x="0" y="3.41" fill="rgba(0, 0, 0, 0)"></rect></pattern><clipPath id="SvgjsClipPath1028"><circle r="34.1" cx="953.55" cy="448.18"></circle></clipPath></defs></svg>